<svg xmlns:vectornator="http://vectornator.io" xmlns="http://www.w3.org/2000/svg" viewBox="0 0 180 180" fill-rule="evenodd" clip-rule="evenodd" stroke-linecap="round" stroke-linejoin="round"><g stroke="#000" fill="none" stroke-linecap="butt" stroke-linejoin="miter" vectornator:layerName="Untitled"><path stroke-width="2" d="M90 0v15m0-15v15m0-15v15m90 75h-15m15 0h-15m15 0h-15m-75 90v-15m0 15v-15m0 15v-15M0 90h15M0 90h15M0 90h15"/><path d="M135 12l-5 9m38 24l-9 5m9 85l-9-5m-24 38l-5-9m-85 9l5-9m-38-24l9-5m-9-85l9 5m24-38l5 9"/></g></svg>